# xmcd
#
# Track frame offsets: 
#        150
#        16898
#        32275
#        50050
#        64215
#        81244
#        101347
#        123749
#        141122
#        162328
#        178777
#        201110
#        221696
#        238967
#        257081
#        272804
#        294471
#        309284
#        326205
#        339990
#
# Disc length: 4711 seconds
#
# Revision: 1
# Processed by: cddbd v1.5.2PL0 Copyright (c) Steve Scherf et al.
# Submitted via: ExactAudioCopy v0.90b4
#
DISCID=2e126514
DTITLE=Elkie Brooks - Sunshine After The Rain - The Collection [CD1
DTITLE=)
DYEAR=2010
DGENRE=Rock
TTITLE0=Pearl's A Singer
TTITLE1=Sunshine After The Rain
TTITLE2=Lilac Wine
TTITLE3=Only Love Can Break Your Heart
TTITLE4=Don't Cry Out Loud
TTITLE5=The Runaway
TTITLE6=Fool If You Think It's Over
TTITLE7=Our Love
TTITLE8=Nights In White Satin
TTITLE9=Gasoline Alley
TTITLE10=No More The Fool
TTITLE11=He Could Have Been An Army
TTITLE12=If You Leave Me Now
TTITLE13=Dance Away
TTITLE14=Superstar
TTITLE15=Money
TTITLE16=Don't Stop
TTITLE17=Love Potion No.9
TTITLE18=Cry Me A River
TTITLE19='Round Midnight
EXTD=UPC: 0600753253014    \nLabel: Spectrum   \nPre/Suf: SPECXX 2031
EXTT0=
EXTT1=
EXTT2=
EXTT3=
EXTT4=
EXTT5=
EXTT6=
EXTT7=
EXTT8=
EXTT9=
EXTT10=
EXTT11=
EXTT12=
EXTT13=
EXTT14=
EXTT15=
EXTT16=
EXTT17=
EXTT18=
EXTT19=
PLAYORDER=
